<svg xmlns="http://www.w3.org/2000/svg" width="520" height="520" viewBox="0 0 520 520" role="img" aria-label="Badayat Al Khair Logo">
  <defs>
    <linearGradient id="gold" x1="0" y1="0" x2="1" y2="1">
      <stop offset="0" stop-color="#f8d477"/>
      <stop offset="0.5" stop-color="#c48a2c"/>
      <stop offset="1" stop-color="#8a5a16"/>
    </linearGradient>
    <linearGradient id="dark" x1="0" y1="0" x2="1" y2="1">
      <stop offset="0" stop-color="#111827"/>
      <stop offset="1" stop-color="#020617"/>
    </linearGradient>
    <filter id="shadow" x="-20%" y="-20%" width="140%" height="140%">
      <feDropShadow dx="0" dy="14" stdDeviation="14" flood-color="#000" flood-opacity="0.24"/>
    </filter>
  </defs>
  <rect width="520" height="520" rx="118" fill="#ffffff"/>
  <rect x="28" y="28" width="464" height="464" rx="96" fill="url(#dark)" filter="url(#shadow)"/>
  <rect x="52" y="52" width="416" height="416" rx="78" fill="none" stroke="url(#gold)" stroke-width="12"/>
  <rect x="76" y="76" width="368" height="368" rx="62" fill="none" stroke="#f8d477" stroke-opacity="0.38" stroke-width="3"/>
  <path d="M136 279c10-38 25-58 54-65l32-8c17-4 29-14 40-29l19-26c6-8 18-7 22 2l30 63 42 12c18 5 31 22 31 41v30c0 9-7 16-16 16h-24c-8 25-31 43-59 43s-51-18-59-43h-76c-8 25-31 43-59 43s-51-18-59-43h-12c-11 0-20-9-20-20v-15c0-8 6-15 14-16l99-15Z" fill="url(#gold)" opacity="0.96"/>
  <circle cx="156" cy="315" r="31" fill="#111827" stroke="#f8d477" stroke-width="9"/>
  <circle cx="307" cy="315" r="31" fill="#111827" stroke="#f8d477" stroke-width="9"/>
  <path d="M213 218h69l-20-42-16 20c-8 10-18 17-33 22Z" fill="#111827" opacity="0.82"/>
  <text x="260" y="140" text-anchor="middle" font-family="Tahoma, Arial, sans-serif" font-size="52" font-weight="900" fill="#f8d477">بداية الخير</text>
  <text x="260" y="407" text-anchor="middle" font-family="Arial, sans-serif" font-size="28" font-weight="800" letter-spacing="3" fill="#f8d477">BADAYAT AL KHAIR</text>
</svg>
